<svg width="73" height="10" viewBox="0 0 73 10" fill="none" xmlns="http://www.w3.org/2000/svg">
<path d="M8.964 0.599999V9H6.132V5.904H3.516V9H0.684V0.599999H3.516V3.576H6.132V0.599999H8.964ZM14.3485 9.192C13.0605 9.192 12.0565 8.844 11.3365 8.148C10.6165 7.452 10.2565 6.476 10.2565 5.22V0.599999H13.0885V5.136C13.0885 5.752 13.1965 6.2 13.4125 6.48C13.6365 6.76 13.9565 6.9 14.3725 6.9C14.7885 6.9 15.1045 6.76 15.3205 6.48C15.5445 6.2 15.6565 5.752 15.6565 5.136V0.599999H18.4405V5.22C18.4405 6.476 18.0805 7.452 17.3605 8.148C16.6405 8.844 15.6365 9.192 14.3485 9.192ZM26.4587 4.608C26.9547 4.792 27.3387 5.06 27.6107 5.412C27.8827 5.764 28.0187 6.188 28.0187 6.684C28.0187 7.42 27.7147 7.992 27.1067 8.4C26.4987 8.8 25.6187 9 24.4667 9H19.7387V0.599999H24.2267C25.3467 0.599999 26.1907 0.799999 26.7587 1.2C27.3347 1.6 27.6227 2.132 27.6227 2.796C27.6227 3.188 27.5227 3.54 27.3227 3.852C27.1307 4.164 26.8427 4.416 26.4587 4.608ZM22.5227 2.58V3.828H23.8427C24.4587 3.828 24.7667 3.62 24.7667 3.204C24.7667 2.788 24.4587 2.58 23.8427 2.58H22.5227ZM24.2267 7.02C24.8507 7.02 25.1627 6.8 25.1627 6.36C25.1627 5.92 24.8507 5.7 24.2267 5.7H22.5227V7.02H24.2267ZM33.8362 5.952V9H31.0042V5.916L27.8362 0.599999H30.8242L32.5402 3.504L34.2682 0.599999H37.0042L33.8362 5.952ZM38.9533 2.796H36.4933V0.599999H44.2453V2.796H41.7853V9H38.9533V2.796ZM48.1129 9.192C47.4169 9.192 46.7369 9.116 46.0729 8.964C45.4169 8.804 44.8769 8.592 44.4529 8.328L45.3649 6.264C45.7649 6.496 46.2129 6.684 46.7089 6.828C47.2049 6.964 47.6809 7.032 48.1369 7.032C48.5289 7.032 48.8089 6.996 48.9769 6.924C49.1449 6.844 49.2289 6.728 49.2289 6.576C49.2289 6.4 49.1169 6.268 48.8929 6.18C48.6769 6.092 48.3169 5.996 47.8129 5.892C47.1649 5.756 46.6249 5.612 46.1929 5.46C45.7609 5.3 45.3849 5.044 45.0649 4.692C44.7449 4.332 44.5849 3.848 44.5849 3.24C44.5849 2.712 44.7329 2.232 45.0289 1.8C45.3249 1.368 45.7649 1.028 46.3489 0.779999C46.9409 0.532 47.6569 0.408 48.4969 0.408C49.0729 0.408 49.6369 0.472 50.1889 0.599999C50.7489 0.719999 51.2409 0.899999 51.6649 1.14L50.8129 3.192C49.9889 2.776 49.2089 2.568 48.4729 2.568C47.7449 2.568 47.3809 2.744 47.3809 3.096C47.3809 3.264 47.4889 3.392 47.7049 3.48C47.9209 3.56 48.2769 3.648 48.7729 3.744C49.4129 3.864 49.9529 4.004 50.3929 4.164C50.8329 4.316 51.2129 4.568 51.5329 4.92C51.8609 5.272 52.0249 5.752 52.0249 6.36C52.0249 6.888 51.8769 7.368 51.5809 7.8C51.2849 8.224 50.8409 8.564 50.2489 8.82C49.6649 9.068 48.9529 9.192 48.1129 9.192ZM56.2876 6.216L55.6516 6.924V9H52.8676V0.599999H55.6516V3.648L58.4116 0.599999H61.4956L58.1356 4.296L61.6636 9H58.3876L56.2876 6.216ZM66.3791 5.952V9H63.5471V5.916L60.3791 0.599999H63.3671L65.0831 3.504L66.8111 0.599999H69.5471L66.3791 5.952ZM69.9067 0.599999H72.7387V9H69.9067V0.599999Z" fill="url(#paint0_linear)"/>
<defs>
<linearGradient id="paint0_linear" x1="12.5" y1="-7.50001" x2="71.5" y2="14" gradientUnits="userSpaceOnUse">
<stop stop-color="#43C6AC"/>
<stop offset="1" stop-color="#191654"/>
</linearGradient>
</defs>
</svg>
