<svg width="513" height="490" viewBox="0 0 513 490" fill="none" xmlns="http://www.w3.org/2000/svg">
<path d="M511.267 186.258C509.503 180.827 504.81 176.869 499.16 176.049L340.437 152.984L269.452 9.15702C266.926 4.03702 261.711 0.796021 256.002 0.796021C250.292 0.796021 245.078 4.03702 242.551 9.15702L171.563 152.984L12.843 176.049C7.19399 176.869 2.49899 180.827 0.73499 186.257C-1.03001 191.688 0.44199 197.649 4.53099 201.634L119.379 313.588L92.271 471.671C91.305 477.299 93.619 482.985 98.238 486.342C100.851 488.24 103.946 489.206 107.056 489.206C109.444 489.206 111.84 488.637 114.034 487.483L256.001 412.845L397.962 487.482C403.017 490.139 409.14 489.697 413.759 486.341C418.378 482.985 420.693 477.297 419.728 471.669L392.611 313.588L507.472 201.633C511.56 197.649 513.033 191.688 511.267 186.258Z" fill="#394A4D"/>
</svg>
